<?xml version="1.0" encoding="UTF-8"?>
<svg width="33px" height="32px" viewBox="0 0 33 32" version="1.1" xmlns="http://www.w3.org/2000/svg" xmlns:xlink="http://www.w3.org/1999/xlink">
    <!-- Generator: Sketch 53.2 (72643) - https://sketchapp.com -->
    <title>close</title>
    <desc>Created with Sketch.</desc>
    <g id="Page-1" stroke="none" stroke-width="1" fill="none" fill-rule="evenodd">
        <g id="Create-Priority" transform="translate(-1240.000000, -180.000000)" fill="#000000">
            <g id="close" transform="translate(1240.000000, 180.000000)">
                <path d="M0.865889213,31.1591241 C1.44314869,31.719708 2.18877551,32 2.95845481,32 C3.72813411,32 4.47376093,31.719708 5.05102041,31.1591241 L16.5,20.0408759 L27.9489796,31.1591241 C28.5262391,31.719708 29.2718659,32 30.0415452,32 C30.8112245,32 31.5568513,31.719708 32.1341108,31.1591241 C33.2886297,30.0379562 33.2886297,28.2394161 32.1341108,27.1182482 L20.6370262,16 L32.0860058,4.88175182 C33.2405248,3.76058394 33.2405248,1.9620438 32.0860058,0.840875912 C30.9314869,-0.280291971 29.0794461,-0.280291971 27.9249271,0.840875912 L16.4759475,11.9591241 L5.02696793,0.840875912 C3.87244898,-0.280291971 2.02040816,-0.280291971 0.865889213,0.840875912 C-0.288629738,1.9620438 -0.288629738,3.76058394 0.865889213,4.88175182 L12.3148688,16 L0.865889213,27.1182482 C-0.288629738,28.2394161 -0.288629738,30.0379562 0.865889213,31.1591241 Z" id="Path"></path>
            </g>
        </g>
    </g>
</svg>