<?xml version="1.0" encoding="UTF-8"?>
<svg width="18px" height="16px" viewBox="0 0 18 16" version="1.1" xmlns="http://www.w3.org/2000/svg" xmlns:xlink="http://www.w3.org/1999/xlink">
    <!-- Generator: Sketch 53.2 (72643) - https://sketchapp.com -->
    <title>Comment</title>
    <desc>Created with Sketch.</desc>
    <g id="Page-1" stroke="none" stroke-width="1" fill="none" fill-rule="evenodd">
        <g id="Issue-details" transform="translate(-363.000000, -695.000000)" fill="#282D32" fill-rule="nonzero">
            <g id="Group-5" transform="translate(338.000000, 683.000000)">
                <g id="Group-2" transform="translate(25.000000, 10.000000)">
                    <g id="Comment" transform="translate(0.000000, 2.000000)">
                        <path d="M17.5263158,0 L0.473684211,0 C0.213157895,0 0,0.218132163 0,0.48473814 L0,12.1184535 C0,12.3850595 0.213157895,12.6031916 0.473684211,12.6031916 L4.26315789,12.6031916 L4.26315789,15.5116205 C4.26315789,15.9478848 4.76052632,16.166017 5.06842105,15.8509372 L8.28947368,12.6031916 L17.5263158,12.6031916 C17.7868421,12.6031916 18,12.3850595 18,12.1184535 L18,0.48473814 C18,0.218132163 17.7868421,0 17.5263158,0 Z M17.0526316,11.6337154 L8.1,11.6337154 C7.98157895,11.6337154 7.86315789,11.6821892 7.76842105,11.7791368 L5.21052632,14.3482489 L5.21052632,12.1184535 C5.21052632,11.8518475 4.99736842,11.6337154 4.73684211,11.6337154 L0.947368421,11.6337154 L0.947368421,0.96947628 L17.0526316,0.96947628 L17.0526316,11.6337154 Z" id="Message"></path>
                    </g>
                </g>
            </g>
        </g>
    </g>
</svg>