<?xml version="1.0" encoding="UTF-8"?>
<svg width="22px" height="22px" viewBox="0 0 22 22" version="1.1" xmlns="http://www.w3.org/2000/svg" xmlns:xlink="http://www.w3.org/1999/xlink">
    <!-- Generator: Sketch 53.2 (72643) - https://sketchapp.com -->
    <title>Create 2</title>
    <desc>Created with Sketch.</desc>
    <g id="Page-1" stroke="none" stroke-width="1" fill="none" fill-rule="evenodd">
        <g id="Create-Priority" transform="translate(-54.000000, -249.000000)" fill="#FFFFFF" fill-rule="nonzero" stroke="#FFFFFF" stroke-width="0.5">
            <g id="Group-10">
                <g id="Group-7">
                    <g id="Create-2" transform="translate(55.000000, 250.000000)">
                        <path d="M17.7034373,0.80508298 C16.6282014,-0.268360993 14.8869908,-0.268360993 13.8117549,0.80508298 L12.837586,1.78468237 L2.46762892,12.1501148 L2.44559046,12.1723275 C2.44025301,12.1776654 2.44025301,12.1833478 2.43457123,12.1833478 C2.423552,12.1998782 2.40702315,12.2162364 2.39617609,12.2327668 C2.39617609,12.238277 2.39049431,12.238277 2.39049431,12.2437871 C2.37947507,12.2603175 2.37413762,12.2713378 2.36294623,12.2878682 C2.35760878,12.2933784 2.35760878,12.2987163 2.35209916,12.3043986 C2.34658955,12.3209291 2.34107993,12.3319493 2.33539815,12.3484798 C2.33539815,12.3538177 2.3300607,12.3538177 2.3300607,12.3595 L0.0292797226,19.2788571 C-0.0382130663,19.4758445 0.0130952493,19.6940116 0.161338328,19.8402025 C0.265504528,19.943001 0.405999721,20.0005131 0.552176695,19.9999966 C0.611921554,19.9989634 0.67114992,19.989665 0.728312224,19.9724459 L7.64167434,17.6659361 C7.64701179,17.6659361 7.64701179,17.6659361 7.65269357,17.6605981 C7.67008329,17.6554324 7.6867843,17.6480282 7.70210795,17.6383854 C7.70641232,17.6378688 7.71020016,17.6359747 7.71329934,17.6330474 C7.72965603,17.6220272 7.75169449,17.6108347 7.76822333,17.5998144 C7.78457997,17.5889663 7.80128103,17.5724359 7.81780987,17.5614156 C7.82331949,17.5557333 7.82865689,17.5557333 7.82865689,17.5503954 C7.83433872,17.5448852 7.84535795,17.5395473 7.85086756,17.5283548 L19.1949935,6.18315081 C20.2683355,5.10781276 20.2683355,3.36643666 19.1949935,2.29127079 L17.7034373,0.80508298 Z M7.46553881,16.3722588 L3.63463436,12.5411624 L13.2229148,2.95197088 L17.0538192,6.7830672 L7.46553881,16.3722588 Z M3.09503638,13.559505 L6.44178342,16.9063979 L1.41632541,18.5797582 L3.09503638,13.559505 Z M18.4189986,5.41242012 L17.8354959,6.00148845 L14.0044192,2.17004773 L14.5936038,1.58115163 C15.2380566,0.937154135 16.2826452,0.937154135 16.9272702,1.58115163 L18.4243361,3.07835972 C19.063968,3.72580105 19.0615576,4.76807827 18.4189986,5.41242012 Z" id="Shape"></path>
                    </g>
                </g>
            </g>
        </g>
    </g>
</svg>