<?xml version="1.0" encoding="UTF-8"?>
<svg width="24px" height="24px" viewBox="0 0 24 24" version="1.1" xmlns="http://www.w3.org/2000/svg" xmlns:xlink="http://www.w3.org/1999/xlink">
    <!-- Generator: Sketch 53.2 (72643) - https://sketchapp.com -->
    <title>Dashboard 2</title>
    <desc>Created with Sketch.</desc>
    <g id="Page-1" stroke="none" stroke-width="1" fill="none" fill-rule="evenodd">
        <g id="Dashboard" transform="translate(-55.000000, -108.000000)" fill="#FFFFFF">
            <g id="Group-7" transform="translate(30.000000, 95.000000)">
                <g id="Dashboard-2" transform="translate(25.000000, 13.000000)">
                    <path d="M4.24506122,18.5 L5.63069388,18.5 L5.63069388,15 L4.24506122,15 L4.24506122,18.5 Z M6.61028571,20.5 L3.26546939,20.5 C2.7242449,20.5 2.28587755,20.055 2.28587755,19.5 L2.28587755,14 C2.28587755,13.45 2.7242449,13 3.26546939,13 L6.61028571,13 C7.15102041,13 7.58987755,13.45 7.58987755,14 L7.58987755,19.5 C7.58987755,20.055 7.15102041,20.5 6.61028571,20.5 L6.61028571,20.5 Z" id="Fill-312"></path>
                    <path d="M11.3887347,18.5 L12.7743673,18.5 L12.7743673,8.5 L11.3887347,8.5 L11.3887347,18.5 Z M13.7539592,20.5 L10.4091429,20.5 C9.86840816,20.5 9.42955102,20.055 9.42955102,19.5 L9.42955102,7.5 C9.42955102,6.95 9.86840816,6.5 10.4091429,6.5 L13.7539592,6.5 C14.2951837,6.5 14.733551,6.95 14.733551,7.5 L14.733551,19.5 C14.733551,20.055 14.2951837,20.5 13.7539592,20.5 L13.7539592,20.5 Z" id="Fill-313"></path>
                    <path d="M18.532898,18.5 L19.9185306,18.5 L19.9185306,2 L18.532898,2 L18.532898,18.5 Z M20.8981224,20.5 L17.5533061,20.5 C17.0125714,20.5 16.5737143,20.055 16.5737143,19.5 L16.5737143,1 C16.5737143,0.45 17.0125714,0 17.5533061,0 L20.8981224,0 C21.4388571,0 21.8777143,0.45 21.8777143,1 L21.8777143,19.5 C21.8777143,20.055 21.4388571,20.5 20.8981224,20.5 L20.8981224,20.5 Z" id="Fill-314"></path>
                    <path d="M22.8573061,24 L1.30628571,24 C0.76555102,24 0.326693878,23.555 0.326693878,23 C0.326693878,22.45 0.76555102,22 1.30628571,22 L22.8573061,22 C23.3980408,22 23.836898,22.45 23.836898,23 C23.836898,23.555 23.3980408,24 22.8573061,24" id="Fill-315"></path>
                </g>
            </g>
        </g>
    </g>
</svg>