<?xml version="1.0" encoding="UTF-8"?>
<svg width="20px" height="21px" viewBox="0 0 20 21" version="1.1" xmlns="http://www.w3.org/2000/svg" xmlns:xlink="http://www.w3.org/1999/xlink">
    <!-- Generator: Sketch 53.2 (72643) - https://sketchapp.com -->
    <title>Dashboard</title>
    <desc>Created with Sketch.</desc>
    <g id="Page-1" stroke="none" stroke-width="1" fill="none" fill-rule="evenodd">
        <g id="Issues-list" transform="translate(-55.000000, -109.000000)" fill="#7685B6" stroke="#1C2237" stroke-width="0.4">
            <g id="Dashboard" transform="translate(55.000000, 110.000000)">
                <path d="M3.36067347,14.6458333 L4.45763265,14.6458333 L4.45763265,11.875 L3.36067347,11.875 L3.36067347,14.6458333 Z M5.23314286,16.2291667 L2.58516327,16.2291667 C2.15669388,16.2291667 1.80965306,15.876875 1.80965306,15.4375 L1.80965306,11.0833333 C1.80965306,10.6479167 2.15669388,10.2916667 2.58516327,10.2916667 L5.23314286,10.2916667 C5.66122449,10.2916667 6.00865306,10.6479167 6.00865306,11.0833333 L6.00865306,15.4375 C6.00865306,15.876875 5.66122449,16.2291667 5.23314286,16.2291667 L5.23314286,16.2291667 Z" id="Fill-312"></path>
                <path d="M9.01608163,14.6458333 L10.1130408,14.6458333 L10.1130408,6.72916667 L9.01608163,6.72916667 L9.01608163,14.6458333 Z M10.888551,16.2291667 L8.24057143,16.2291667 C7.8124898,16.2291667 7.46506122,15.876875 7.46506122,15.4375 L7.46506122,5.9375 C7.46506122,5.50208333 7.8124898,5.14583333 8.24057143,5.14583333 L10.888551,5.14583333 C11.3170204,5.14583333 11.6640612,5.50208333 11.6640612,5.9375 L11.6640612,15.4375 C11.6640612,15.876875 11.3170204,16.2291667 10.888551,16.2291667 L10.888551,16.2291667 Z" id="Fill-313"></path>
                <path d="M14.6718776,14.6458333 L15.7688367,14.6458333 L15.7688367,1.58333333 L14.6718776,1.58333333 L14.6718776,14.6458333 Z M16.5443469,16.2291667 L13.8963673,16.2291667 C13.4682857,16.2291667 13.1208571,15.876875 13.1208571,15.4375 L13.1208571,0.791666667 C13.1208571,0.35625 13.4682857,0 13.8963673,0 L16.5443469,0 C16.9724286,0 17.3198571,0.35625 17.3198571,0.791666667 L17.3198571,15.4375 C17.3198571,15.876875 16.9724286,16.2291667 16.5443469,16.2291667 L16.5443469,16.2291667 Z" id="Fill-314"></path>
                <path d="M18.0953673,19 L1.03414286,19 C0.606061224,19 0.258632653,18.6477083 0.258632653,18.2083333 C0.258632653,17.7729167 0.606061224,17.4166667 1.03414286,17.4166667 L18.0953673,17.4166667 C18.523449,17.4166667 18.8708776,17.7729167 18.8708776,18.2083333 C18.8708776,18.6477083 18.523449,19 18.0953673,19" id="Fill-315"></path>
            </g>
        </g>
    </g>
</svg>