<?xml version="1.0" encoding="UTF-8"?>
<svg width="15px" height="15px" viewBox="0 0 15 15" version="1.1" xmlns="http://www.w3.org/2000/svg" xmlns:xlink="http://www.w3.org/1999/xlink">
    <!-- Generator: Sketch 53.2 (72643) - https://sketchapp.com -->
    <title>Edit</title>
    <desc>Created with Sketch.</desc>
    <g id="Page-1" stroke="none" stroke-width="1" fill="none" fill-rule="evenodd">
        <g id="Issue-details" transform="translate(-358.000000, -213.000000)" fill="#000000" fill-rule="nonzero">
            <g id="Group-3" transform="translate(338.000000, 200.000000)">
                <g id="Edit" transform="translate(20.000000, 13.000000)">
                    <path d="M13.277578,0.603812235 C12.4711511,-0.201270745 11.1652431,-0.201270745 10.3588162,0.603812235 L9.62818951,1.33851177 L1.85072169,9.11258606 L1.83419284,9.12924565 C1.83018976,9.13324908 1.83018976,9.13751086 1.82592842,9.13751086 C1.817664,9.14990867 1.80526736,9.16217731 1.79713206,9.17457513 C1.79713206,9.17870773 1.79287073,9.17870773 1.79287073,9.18284034 C1.78460631,9.19523815 1.78060322,9.20350336 1.77220967,9.21590117 C1.76820658,9.22003377 1.76820658,9.22403724 1.76407437,9.22829898 C1.75994216,9.24069679 1.75580995,9.248962 1.75154861,9.26135982 C1.75154861,9.26536328 1.74754553,9.26536328 1.74754553,9.26962502 L0.021959792,14.4591428 C-0.0286597998,14.6068834 0.00982143701,14.7705087 0.121003746,14.8801519 C0.199128396,14.9572508 0.304499791,15.0003848 0.414132521,14.9999974 C0.458941165,14.9992225 0.50336244,14.9922487 0.546234168,14.9793344 L5.73125576,13.2494521 C5.73525885,13.2494521 5.73525885,13.2494521 5.73952018,13.2454486 C5.75256247,13.2415743 5.76508822,13.2360211 5.77658096,13.2287891 C5.77980924,13.2284016 5.78265012,13.226981 5.78497451,13.2247856 C5.79724202,13.2165204 5.81377087,13.208126 5.8261675,13.1998608 C5.83843498,13.1917248 5.85096077,13.1793269 5.8633574,13.1710617 C5.86748962,13.1668 5.87149267,13.1668 5.87149267,13.1627965 C5.87575404,13.1586639 5.88401846,13.1546605 5.88815067,13.1462661 L14.3962451,4.63736311 C15.2012516,3.83085957 15.2012516,2.5248275 14.3962451,1.71845309 L13.277578,0.603812235 Z M5.59915411,12.2791941 L2.72597577,9.40587183 L9.91718608,2.21397816 L12.7903644,5.0873004 L5.59915411,12.2791941 Z M2.32127728,10.1696288 L4.83133756,12.6797984 L1.06224405,13.9348187 L2.32127728,10.1696288 Z M13.814249,4.05931509 L13.3766219,4.50111634 L10.5033144,1.6275358 L10.9452028,1.18586372 C11.4285425,0.702865601 12.2119839,0.702865601 12.6954527,1.18586372 L13.818252,2.30876979 C14.297976,2.79435079 14.2961682,3.5760587 13.814249,4.05931509 Z" id="Shape"></path>
                </g>
            </g>
        </g>
    </g>
</svg>