<?xml version="1.0" encoding="UTF-8"?>
<svg width="25px" height="25px" viewBox="0 0 25 25" version="1.1" xmlns="http://www.w3.org/2000/svg" xmlns:xlink="http://www.w3.org/1999/xlink">
    <!-- Generator: Sketch 53.2 (72643) - https://sketchapp.com -->
    <title>Group 8</title>
    <desc>Created with Sketch.</desc>
    <g id="Page-1" stroke="none" stroke-width="1" fill="none" fill-rule="evenodd">
        <g id="Issues-list" transform="translate(-54.000000, -175.000000)">
            <g id="Group-8" transform="translate(55.000000, 176.000000)">
                <polygon id="Path-2" stroke="#FFFFFF" stroke-width="1.8" fill-rule="nonzero" points="0.776751153 0.610181244 0.776751153 19.4547269 18.7953713 19.4547269 18.7953713 5.89130225 13.5142503 0.610181244"></polygon>
                <path d="M13.5151547,6.54805958 L8.29564033,12.7807705 L6.18573803,10.261722 C5.9264603,9.95246169 5.50644353,9.95228038 5.2471658,10.2619033 C4.98778684,10.5716472 4.98778684,11.0732811 5.2471658,11.3829041 L7.82643013,14.4625133 C7.95604369,14.6171133 8.12584201,14.6944737 8.29564033,14.6944737 C8.46543865,14.6944737 8.63569247,14.6171133 8.76525542,14.4622716 C8.7656603,14.4616068 8.76596397,14.4609419 8.7666219,14.4601563 L14.4536763,7.668879 C14.7130553,7.35943735 14.7130553,6.8574408 14.4536763,6.54799914 C14.1944492,6.23837618 13.7741288,6.23837618 13.5151547,6.54805958 Z" id="Path" fill="#FFFFFF"></path>
                <polyline id="Path-4" stroke="#FFFFFF" stroke-width="1.8" fill-rule="nonzero" points="1.17782313 22.9854745 22.3512212 22.9854745 22.3512212 5.54134425"></polyline>
            </g>
        </g>
    </g>
</svg>