<?xml version="1.0" encoding="UTF-8"?>
<svg width="16px" height="16px" viewBox="0 0 16 16" version="1.1" xmlns="http://www.w3.org/2000/svg" xmlns:xlink="http://www.w3.org/1999/xlink">
    <!-- Generator: Sketch 53.2 (72643) - https://sketchapp.com -->
    <title>icons/icon_search</title>
    <desc>Created with Sketch.</desc>
    <g id="Symbols" stroke="none" stroke-width="1" fill="none" fill-rule="evenodd">
        <g id="header" transform="translate(-320.000000, -27.000000)">
            <g id="search" transform="translate(320.000000, 27.000000)">
                <g id="icons/icon_search">
                    <rect id="frame" x="0" y="0" width="16" height="16"></rect>
                    <path d="M15.8040408,14.8636735 L11.9575918,11.0172245 C12.9110204,9.85473469 13.4856327,8.3657551 13.4856327,6.74281633 C13.4856327,3.02040816 10.4652245,0 6.74281633,0 C3.01722449,0 0,3.02040816 0,6.74281633 C0,10.4652245 3.01722449,13.4856327 6.74281633,13.4856327 C8.3657551,13.4856327 9.85138776,12.9142041 11.0138776,11.9607755 L14.8603265,15.8040408 C15.1216327,16.0653878 15.542898,16.0653878 15.8040408,15.8040408 C16.0653878,15.5460816 16.0653878,15.1216327 15.8040408,14.8636735 Z M6.74281633,12.1436735 C3.76163265,12.1436735 1.33881633,9.72081633 1.33881633,6.74281633 C1.33881633,3.76481633 3.76163265,1.33881633 6.74281633,1.33881633 C9.72081633,1.33881633 12.1470204,3.76481633 12.1470204,6.74281633 C12.1470204,9.72081633 9.72081633,12.1436735 6.74281633,12.1436735 Z" id="magnifier" fill-opacity="0.4" fill="#2B3034" fill-rule="evenodd"></path>
                </g>
            </g>
        </g>
    </g>
</svg>