<?xml version="1.0" encoding="UTF-8"?>
<svg width="143px" height="47px" viewBox="0 0 143 47" version="1.1" xmlns="http://www.w3.org/2000/svg" xmlns:xlink="http://www.w3.org/1999/xlink">
    <!-- Generator: Sketch 53.2 (72643) - https://sketchapp.com -->
    <title>Logo</title>
    <desc>Created with Sketch.</desc>
    <g id="Page-1" stroke="none" stroke-width="1" fill="none" fill-rule="evenodd">
        <g id="Login" transform="translate(-147.000000, -280.000000)">
            <g id="Logo" transform="translate(147.000000, 280.000000)">
                <g id="Group">
                    <path d="M4.52922463,15.2838541 L14.5482649,15.2838541 L29.3043622,31.7161459 L19.2853219,31.7161459 L4.52922463,15.2838541 Z M15.4353542,13.2564103 L0,13.2564103 L18.3982326,33.7435897 L33.8333333,33.7435897 L15.4353542,13.2564103 L15.4353542,13.2564103 Z" id="Fill-4" fill="#4D5AFF"></path>
                    <path d="M31.4166667,0 L15.6594778,12.0512821 L0,12.0512821 L3.44817073,9.41490777 C11.4219048,3.31672893 21.2727192,0 31.4166667,0" id="Fill-5" fill="#A3AAFF"></path>
                    <path d="M28.6958574,15.2838541 L38.7122881,15.2838541 L53.4708093,31.7161459 L43.4518441,31.7161459 L28.6958574,15.2838541 Z M39.6019053,13.2564103 L24.1666667,13.2564103 L42.5647614,33.7435897 L58,33.7435897 L39.6019053,13.2564103 L39.6019053,13.2564103 Z" id="Fill-6" fill="#4D5AFF"></path>
                    <path d="M58,34.9487179 L54.5516004,37.5850922 C50.5660516,40.6341816 46.1076368,42.9879086 41.3815473,44.5787379 C36.6552008,46.1720684 31.6565512,47 26.5833333,47 L42.3406503,34.9487179 L58,34.9487179" id="Fill-7" fill="#A3AAFF"></path>
                </g>
                <g id="Group-6">
                    <g id="Group">
                        <path d="M4.5337281,15.2838541 L14.5627304,15.2838541 L29.3334999,31.7161459 L19.3044975,31.7161459 L4.5337281,15.2838541 Z M15.4507018,13.2564103 L0,13.2564103 L18.4165262,33.7435897 L33.8669742,33.7435897 L15.4507018,13.2564103 L15.4507018,13.2564103 Z" id="Fill-4" fill="#FFFFFF"></path>
                        <path d="M31.4479047,0 L15.6750482,12.0512821 L0,12.0512821 L3.45159929,9.41490777 C11.4332618,3.31672893 21.2938709,0 31.4479047,0" id="Fill-5" fill="#CACDFA"></path>
                        <path d="M28.72439,15.2838541 L38.7507802,15.2838541 L53.523976,31.7161459 L43.4950488,31.7161459 L28.72439,15.2838541 Z M39.6412819,13.2564103 L24.1906959,13.2564103 L42.6070841,33.7435897 L58.0576701,33.7435897 L39.6412819,13.2564103 L39.6412819,13.2564103 Z" id="Fill-6" fill="#FFFFFF"></path>
                        <path d="M58.0576701,34.9487179 L54.6058417,37.5850922 C50.6163301,40.6341816 46.1534822,42.9879086 41.4226935,44.5787379 C36.6916475,46.1720684 31.6880277,47 26.6097655,47 L42.3827502,34.9487179 L58.0576701,34.9487179" id="Fill-7" fill="#CACDFA"></path>
                    </g>
                    <path d="M83.5944889,36.1538462 L74.9731173,36.1538462 L74.9731173,13.3659674 L83.1477857,13.3659674 C84.822931,13.3659674 86.2076971,13.6367191 87.3021254,14.1782306 C88.3965537,14.7197422 89.2117788,15.4504009 89.7478254,16.3702287 C90.2838719,17.2900566 90.5518911,18.3248473 90.5518911,19.4746321 C90.5518911,20.8988817 90.1833647,21.9800341 89.4463007,22.7181217 C88.7092368,23.4562094 87.8083943,23.962478 86.7437464,24.2369427 L86.7437464,24.4483537 C87.5105907,24.5151154 88.2420599,24.7765948 88.9381758,25.2327998 C89.6342918,25.6890047 90.2019714,26.3250858 90.6412317,27.1410621 C91.0804921,27.9570384 91.3001189,28.9287774 91.3001189,30.0563083 C91.3001189,31.228347 91.026516,32.2742645 90.4793018,33.1940924 C89.9320877,34.1139202 89.0889438,34.8371611 87.949845,35.3638367 C86.8107462,35.8905123 85.3589753,36.1538462 83.5944889,36.1538462 Z M78.5132401,16.3924825 L78.5132401,23.2132685 L82.9467693,23.2132685 C84.1975445,23.2132685 85.2044778,22.9017186 85.9675996,22.2786094 C86.7307214,21.6555002 87.1122765,20.798738 87.1122765,19.7082969 C87.1122765,18.803305 86.8051712,18.0244302 86.1909512,17.3716492 C85.5767312,16.7188681 84.5511854,16.3924825 83.114283,16.3924825 L78.5132401,16.3924825 Z M87.8828395,29.8337704 C87.8828395,28.7952551 87.5105906,27.8939857 86.7660816,27.1299352 C86.0215725,26.3658846 84.968108,25.9838651 83.6056565,25.9838651 L78.5132401,25.9838651 L78.5132401,33.127331 L83.4604779,33.127331 C85.0537273,33.127331 86.1890865,32.8139266 86.8665898,32.1871085 C87.544093,31.5602903 87.8828395,30.7758521 87.8828395,29.8337704 Z M98.8047326,13.3659674 L98.8047326,36.1538462 L95.2646098,36.1538462 L95.2646098,13.3659674 L98.8047326,13.3659674 Z M116.315498,36.1538462 L111.915471,27.4526151 L107.146915,27.4526151 L107.146915,36.1538462 L103.606792,36.1538462 L103.606792,13.3659674 L111.613947,13.3659674 C113.430549,13.3659674 114.915822,13.6738084 116.069811,14.2894996 C117.2238,14.9051908 118.078111,15.7434084 118.63277,16.8041776 C119.18743,17.8649468 119.464755,19.0629304 119.464755,20.3981643 C119.464755,21.9707732 119.109257,23.2837336 118.398251,24.3370848 C117.687245,25.390436 116.710092,26.1915644 115.466762,26.7404939 L120.313491,36.1538462 L116.315498,36.1538462 Z M107.146915,16.3924825 L107.146915,24.3704655 L111.401763,24.3704655 C113.062018,24.3704655 114.238324,24.0106995 114.930718,23.2911568 C115.623111,22.571614 115.969303,21.6221286 115.969303,20.4426719 C115.969303,19.7453831 115.839016,19.0889029 115.578437,18.4732117 C115.317859,17.8575205 114.87116,17.3568153 114.238328,16.971081 C113.605495,16.5853468 112.73071,16.3924825 111.613947,16.3924825 L107.146915,16.3924825 Z M125.76327,36.1538462 L122.010963,36.1538462 L130.420151,13.3659674 L134.138955,13.3659674 L142.548143,36.1538462 L138.784668,36.1538462 L136.863844,30.6349068 L127.684094,30.6349068 L125.76327,36.1538462 Z M132.139958,17.8834863 L128.733846,27.6528992 L135.814092,27.6528992 L132.40798,17.8834863 L132.139958,17.8834863 Z" id="BIRA" fill="#FFFFFF"></path>
                </g>
            </g>
        </g>
    </g>
</svg>