<?xml version="1.0" encoding="UTF-8"?>
<svg width="12px" height="13px" viewBox="0 0 12 13" version="1.1" xmlns="http://www.w3.org/2000/svg" xmlns:xlink="http://www.w3.org/1999/xlink">
    <!-- Generator: Sketch 53.2 (72643) - https://sketchapp.com -->
    <title>logout</title>
    <desc>Created with Sketch.</desc>
    <g id="Page-1" stroke="none" stroke-width="1" fill="none" fill-rule="evenodd">
        <g id="Dashboard-user" transform="translate(-1232.000000, -153.000000)" fill="#000000">
            <g id="logout" transform="translate(1238.000000, 159.500000) scale(-1, 1) translate(-1238.000000, -159.500000) translate(1232.000000, 153.000000)">
                <path d="M7.55799872,11.984375 L2.30454576,11.984375 C1.33930742,10.4473281 0.883958366,8.44365234 0.883958366,6.5 C0.883958366,4.55723633 1.33897593,2.55320508 2.30454576,1.015625 L7.55802082,1.015625 C7.80212592,1.015625 8,0.788277344 8,0.5078125 C8,0.227347656 7.80212592,0 7.55802082,0 L2.08324678,0 C1.94656472,0 1.81757309,0.0726425781 1.73386224,0.196777344 C0.559501447,1.93804102 0,4.24338281 0,6.5 C0,8.75636328 0.559435151,11.0618574 1.73386224,12.8032227 C1.81757309,12.9273574 1.94656472,13 2.08324678,13 L7.55802082,13 C7.80212592,13 8,12.7726523 8,12.4921875 C8,12.2117227 7.80210382,11.984375 7.55799872,11.984375 Z" id="Path"></path>
                <path d="M11.8634987,6.13818929 C11.8631223,6.13777849 11.8628164,6.13731633 11.8624399,6.13690553 L10.0419021,4.15041199 C9.85811185,3.94986267 9.56013209,3.94986267 9.37634182,4.15041199 C9.19255155,4.35096131 9.19255155,4.67608691 9.37634182,4.87661056 L10.393506,5.98649996 L4.47059344,5.98649996 C4.21068468,5.98649996 4,6.21639608 4,6.50000481 C4,6.78361355 4.21068468,7.01350967 4.47059344,7.01350967 L10.393506,7.01350967 L9.37634182,8.12339907 C9.19255155,8.32394839 9.19255155,8.64907399 9.37634182,8.84959764 C9.56010856,9.05012128 9.85811185,9.05014696 10.0419021,8.84959764 L11.8624399,6.8631041 C12.0503008,6.65808728 12.0410066,6.33319276 11.8634987,6.13818929 Z" id="Path"></path>
            </g>
        </g>
    </g>
</svg>