<?xml version="1.0" encoding="UTF-8"?>
<svg width="11px" height="11px" viewBox="0 0 11 11" version="1.1" xmlns="http://www.w3.org/2000/svg" xmlns:xlink="http://www.w3.org/1999/xlink">
    <!-- Generator: Sketch 53.2 (72643) - https://sketchapp.com -->
    <title>My Account</title>
    <desc>Created with Sketch.</desc>
    <g id="Page-1" stroke="none" stroke-width="1" fill="none" fill-rule="evenodd">
        <g id="Dashboard-user" transform="translate(-1232.000000, -83.000000)" fill="#000000" fill-rule="nonzero">
            <g id="My-Account" transform="translate(1232.000000, 83.000000)">
                <path d="M9.38910156,7.11089844 C8.79005273,6.51187109 8.0770293,6.06841211 7.29908008,5.79996484 C8.13228711,5.2260957 8.6796875,4.26567969 8.6796875,3.1796875 C8.6796875,1.42641211 7.25327539,0 5.5,0 C3.74672461,0 2.3203125,1.42641211 2.3203125,3.1796875 C2.3203125,4.26567969 2.86771289,5.2260957 3.70094141,5.79996484 C2.92299219,6.06841211 2.20996875,6.51187109 1.61091992,7.11089844 C0.572107422,8.14973242 0,9.53089844 0,11 L0.859375,11 C0.859375,8.44114648 2.94114648,6.359375 5.5,6.359375 C8.05885352,6.359375 10.140625,8.44114648 10.140625,11 L11,11 C11,9.53089844 10.4278926,8.14973242 9.38910156,7.11089844 Z M5.5,5.5 C4.22058398,5.5 3.1796875,4.459125 3.1796875,3.1796875 C3.1796875,1.90025 4.22058398,0.859375 5.5,0.859375 C6.77941602,0.859375 7.8203125,1.90025 7.8203125,3.1796875 C7.8203125,4.459125 6.77941602,5.5 5.5,5.5 Z" id="Shape"></path>
            </g>
        </g>
    </g>
</svg>