<?xml version="1.0" encoding="UTF-8"?>
<svg width="13px" height="17px" viewBox="0 0 13 17" version="1.1" xmlns="http://www.w3.org/2000/svg" xmlns:xlink="http://www.w3.org/1999/xlink">
    <!-- Generator: Sketch 53.2 (72643) - https://sketchapp.com -->
    <title>pdf</title>
    <desc>Created with Sketch.</desc>
    <g id="Page-1" stroke="none" stroke-width="1" fill="none" fill-rule="evenodd">
        <g id="Issue-details" transform="translate(-498.000000, -353.000000)" fill="#000000" fill-rule="nonzero">
            <g id="Group-14" transform="translate(338.000000, 352.000000)">
                <g id="pdf" transform="translate(160.000000, 1.000000)">
                    <path d="M12.8942057,3.6454375 L9.28308333,0.103759766 C9.215375,0.0373535156 9.12369792,0 9.02775521,0 L1.44442188,0 C0.647799479,0 0,0.635341797 0,1.41667773 L0,15.5833555 C0,16.3646582 0.647799479,17 1.44445573,17 L11.5555781,17 C12.3522005,17 13,16.3646582 13,15.5833223 L13,3.89582227 C13,3.80175781 12.9619141,3.71184375 12.8942057,3.6454375 Z M9.3888776,1.2091582 L11.7671328,3.54167773 L10.1110885,3.54167773 C9.71296354,3.54167773 9.3888776,3.22382422 9.3888776,2.83335547 L9.3888776,1.2091582 L9.3888776,1.2091582 Z M12.2777891,15.5833223 C12.2777891,15.973791 11.9537031,16.2916445 11.5555781,16.2916445 L1.44445573,16.2916445 C1.04633073,16.2916445 0.722244792,15.973791 0.722244792,15.5833223 L0.722244792,1.41667773 C0.722244792,1.02620898 1.04633073,0.708355469 1.44445573,0.708355469 L8.66666667,0.708355469 L8.66666667,2.83335547 C8.66666667,3.6146582 9.31446615,4.25 10.1111224,4.25 L12.2777891,4.25 L12.2777891,15.5833223 Z" id="Shape"></path>
                    <path d="M8.69953125,10.0086758 C8.3909375,9.73547656 8.09765625,9.45461328 7.90234375,9.23488672 C7.6484375,8.94924219 7.4221875,8.67238672 7.22559375,8.40871484 C7.53225,7.34267188 7.6666875,6.79300391 7.6666875,6.50001172 C7.6666875,5.25526953 7.2669375,5 6.6666875,5 C6.210625,5 5.6666875,5.26658984 5.6666875,6.53590625 C5.6666875,7.09548828 5.93915625,7.7748125 6.4791875,8.56435156 C6.34703125,9.01807813 6.19175,9.54141406 6.01728125,10.1313711 C5.93328125,10.4144492 5.84215625,10.6766445 5.74578125,10.919082 C5.66734375,10.9582813 5.59115625,10.9981836 5.51759375,11.0395625 C5.252625,11.188625 5.001,11.3226406 4.76759375,11.4471641 C3.703125,12.0140586 3,12.3890703 3,13.1295313 C3,13.6671406 3.51921875,14 4,14 C4.61978125,14 5.55565625,13.0687109 6.23925,11.4998633 C6.948875,11.1849336 7.8310625,10.9516367 8.52734375,10.8055273 C9.08528125,11.2881875 9.7015,11.75 10,11.75 C10.8265,11.75 11,11.2123906 11,10.761582 C11,9.87497656 10.0995938,9.87497656 9.66665625,9.87497656 C9.53221875,9.87501172 9.1715625,9.91969531 8.69953125,10.0086758 Z M4,13.2500117 C3.8095625,13.2500117 3.68065625,13.1489375 3.66665625,13.1295313 C3.66665625,12.8636445 4.37140625,12.4879297 5.0530625,12.1246602 C5.09634375,12.1015977 5.1403125,12.0785 5.18490625,12.0546992 C4.68425,12.8713789 4.189125,13.2500117 4,13.2500117 Z M6.33334375,6.53590625 C6.33334375,5.75002344 6.55015625,5.75002344 6.6666875,5.75002344 C6.902375,5.75002344 7.00003125,5.75002344 7.00003125,6.50001172 C7.00003125,6.65821484 6.90628125,7.05372266 6.73471875,7.67117188 C6.47296875,7.21779688 6.33334375,6.82925 6.33334375,6.53590625 Z M6.588875,10.5664297 C6.60971875,10.50125 6.62990625,10.435332 6.6494375,10.3686758 C6.773125,9.95119531 6.88446875,9.57618359 6.98375,9.23854297 C7.12209375,9.40992969 7.2711875,9.58535938 7.43103125,9.76514844 C7.49353125,9.83546094 7.64846875,9.99366406 7.854875,10.1917695 C7.444,10.2924922 7.00684375,10.4173672 6.588875,10.5664297 Z M10.3333437,10.7616172 C10.3333437,10.9300859 10.3333437,11.0000117 10.0240937,11.0022266 C9.93328125,10.9802539 9.7233125,10.8411055 9.4641875,10.6426133 C9.55825,10.6309063 9.62759375,10.6250352 9.66665625,10.6250352 C10.1591875,10.6250352 10.2988437,10.6792109 10.3333437,10.7616172 Z" id="Shape"></path>
                </g>
            </g>
        </g>
    </g>
</svg>