<?xml version="1.0" encoding="UTF-8"?>
<svg width="13px" height="13px" viewBox="0 0 13 13" version="1.1" xmlns="http://www.w3.org/2000/svg" xmlns:xlink="http://www.w3.org/1999/xlink">
    <!-- Generator: Sketch 53.2 (72643) - https://sketchapp.com -->
    <title>Settings</title>
    <desc>Created with Sketch.</desc>
    <g id="Page-1" stroke="none" stroke-width="1" fill="none" fill-rule="evenodd">
        <g id="Dashboard-user" transform="translate(-1231.000000, -117.000000)" fill="#000000" fill-rule="nonzero">
            <g id="Settings" transform="translate(1237.500000, 123.500000) scale(1, -1) translate(-1237.500000, -123.500000) translate(1231.000000, 117.000000)">
                <path d="M12.3345833,5.13536662 L11.4221174,4.98057238 C11.3270689,4.6736996 11.2048636,4.37768958 11.0555017,4.09525799 L11.5932048,3.34301233 C11.8213212,3.0225611 11.7860175,2.58533528 11.5063033,2.30833507 L10.6970329,1.49905995 C10.5449553,1.34698141 10.3439955,1.26279507 10.1294574,1.26279507 C9.96108576,1.26279507 9.8008611,1.31439315 9.66507748,1.41215793 L8.9101206,1.94986422 C8.616828,1.79506998 8.30995704,1.66743263 7.99222339,1.57238354 L7.84014574,0.670775016 C7.77496961,0.282431586 7.44094192,0 7.04716945,0 L5.90387144,0 C5.51009896,0 5.17607128,0.282431586 5.11089515,0.670775016 L4.95338616,1.59410905 C4.64923087,1.68915814 4.35322259,1.8140798 4.07079268,1.96615835 L3.32398282,1.42845206 C3.1881992,1.33068728 3.02525887,1.2790892 2.85688719,1.2790892 C2.64234908,1.2790892 2.43867367,1.36327554 2.28931169,1.51535408 L1.4773257,2.3246292 C1.20032713,2.60162941 1.16230772,3.03885523 1.39042418,3.35930645 L1.93355863,4.12241487 C1.78419666,4.40756215 1.66470708,4.70357217 1.57237422,5.01044496 L0.670771042,5.1625235 C0.282429912,5.22770002 0,5.56172968 0,5.95550449 L0,7.09880928 C0,7.49258408 0.282429912,7.82661375 0.670771042,7.89179027 L1.5940996,8.04930019 C1.68914813,8.35345728 1.81406905,8.64946731 1.9661467,8.93189889 L1.43115927,9.67599749 C1.2030428,9.99644872 1.23834654,10.4336745 1.51806078,10.7106747 L2.32733111,11.5199499 C2.47940875,11.6720284 2.6803685,11.7562147 2.8949066,11.7562147 C3.06327828,11.7562147 3.22350294,11.7046167 3.35928655,11.6068519 L4.12239045,11.0637142 C4.39667335,11.2076457 4.6845346,11.3244203 4.98054288,11.4167537 L5.13262052,12.329225 C5.19779666,12.7175684 5.53182434,13 5.92559682,13 L7.0716105,13 C7.46538297,13 7.79941066,12.7175684 7.86458679,12.329225 L8.01938011,11.4167537 C8.32625107,11.3217046 8.62225935,11.1994986 8.90468926,11.0501358 L9.65693047,11.5878421 C9.79271408,11.6856069 9.95565441,11.7372049 10.1240261,11.7372049 L10.1240261,11.7372049 C10.3385642,11.7372049 10.5395239,11.6530186 10.6916016,11.50094 L11.5008719,10.6916649 C11.7778705,10.4146647 11.8158899,9.9774389 11.5877734,9.65698767 L11.0500703,8.90202632 C11.1994323,8.61687905 11.3243532,8.32086902 11.4166861,8.01671193 L12.3291519,7.86463338 C12.7174931,7.79945686 12.999923,7.4654272 12.999923,7.07165239 L12.999923,5.92834761 C13.0053543,5.5345728 12.7229244,5.20054314 12.3345833,5.13536662 Z M12.2721228,7.07165239 C12.2721228,7.10695634 12.2476818,7.13682891 12.212378,7.14226029 L11.0717957,7.33235847 C10.9278651,7.35679967 10.8138068,7.46271151 10.7785031,7.60121161 C10.6753076,8.0004178 10.5177986,8.38332985 10.3059761,8.73908502 C10.232653,8.86400668 10.2380843,9.01880092 10.3222702,9.13829121 L10.9930412,10.0833507 C11.0120509,10.1105076 11.0093352,10.1512429 10.9848942,10.1756841 L10.1756239,10.9849593 C10.1566142,11.0039691 10.1376045,11.0066848 10.1240261,11.0066848 C10.1077321,11.0066848 10.0941537,11.0012534 10.083291,10.9931063 L9.14095274,10.3223313 C9.02417884,10.238145 8.86666985,10.2327136 8.74174892,10.3060372 C8.38599586,10.5178609 8.00308608,10.6753708 7.60388226,10.778567 C7.4626673,10.8138709 7.35675608,10.9306455 7.33503071,11.0718613 L7.14221798,12.2124504 C7.13678663,12.2477543 7.10691424,12.2721955 7.0716105,12.2721955 L5.92831249,12.2721955 C5.89300875,12.2721955 5.86313635,12.2477543 5.85770501,12.2124504 L5.66760795,11.0718613 C5.6431669,10.9279298 5.53725569,10.8138709 5.3987564,10.778567 C5.01041527,10.6780865 4.6356525,10.5232922 4.28533079,10.3223313 C4.22830167,10.2897431 4.16312554,10.2734489 4.10066507,10.2734489 C4.02734192,10.2734489 3.9513031,10.2951744 3.88884264,10.3413411 L2.93835736,11.0175475 C2.924779,11.0256946 2.91120064,11.031126 2.89762227,11.031126 C2.88675959,11.031126 2.86503421,11.0284103 2.8460245,11.0094005 L2.03675418,10.2001253 C2.01231313,10.1756841 2.00959745,10.1376645 2.02860716,10.1077919 L2.69666253,9.17087947 C2.78084837,9.05138918 2.78627971,8.89387926 2.71295656,8.76895759 C2.50113413,8.41591811 2.33819379,8.03300606 2.23499825,7.63379987 C2.19697884,7.49529977 2.0829206,7.38938793 1.94170565,7.36494673 L0.792976293,7.16941717 C0.757672554,7.16398579 0.733231503,7.13411322 0.733231503,7.09880928 L0.733231503,5.95550449 C0.733231503,5.92020054 0.757672554,5.89032797 0.792976293,5.88489659 L1.92541161,5.69479841 C2.06934224,5.67035722 2.18611615,5.56444537 2.22141989,5.42322958 C2.32189976,5.0240234 2.47669308,4.63839565 2.68579984,4.28264048 C2.75912299,4.15771882 2.75097597,4.00292459 2.66679013,3.88614999 L1.99058775,2.93565908 C1.97157804,2.90850219 1.97429371,2.86776687 1.99873476,2.84332567 L2.80800509,2.03405055 C2.8270148,2.01504074 2.8460245,2.01232505 2.85960286,2.01232505 C2.8758969,2.01232505 2.88947526,2.01775642 2.90033795,2.02590349 L3.83724487,2.69396282 C3.95673445,2.77814915 4.11424344,2.78358053 4.23916436,2.71025695 C4.59220175,2.49843326 4.97511153,2.33549196 5.37431535,2.2322958 C5.51281464,2.19427616 5.61872585,2.08021726 5.6431669,1.93900146 L5.8386953,0.790265302 C5.84412665,0.754961354 5.87399904,0.730520159 5.90930278,0.730520159 L7.05260079,0.730520159 C7.08790453,0.730520159 7.11777693,0.754961354 7.12320827,0.790265302 L7.31330533,1.92270733 C7.33774638,2.06663881 7.4436576,2.18341341 7.58487255,2.21871736 C7.99493906,2.32191352 8.38599586,2.48213913 8.74989594,2.6966785 C8.87481686,2.77000209 9.02961018,2.76457071 9.14909976,2.68038437 L10.0860067,2.00689367 C10.099585,1.99874661 10.1131634,1.99331523 10.1267418,1.99331523 C10.1376045,1.99331523 10.1593298,1.99603092 10.1783395,2.01504074 L10.9876099,2.82431586 C11.0120509,2.84875705 11.0147666,2.88677669 10.9957569,2.91664926 L10.3249858,3.85899311 C10.2408,3.9757677 10.2353687,4.13327763 10.3086918,4.25819929 C10.5205142,4.61395446 10.6780232,4.99686651 10.7812188,5.3960727 C10.8165225,5.53728849 10.9332964,5.64320033 11.0745114,5.66492584 L12.2150937,5.85773971 C12.2503975,5.86317109 12.2748385,5.89304366 12.2748385,5.92834761 L12.2748385,7.07165239 L12.2721228,7.07165239 L12.2721228,7.07165239 Z" id="Shape"></path>
                <path d="M6.5,4 C5.12052275,4 4,5.12052275 4,6.5 C4,7.87947725 5.12052275,9 6.5,9 C7.87947725,9 9,7.87947725 9,6.5 C9,5.12052275 7.87947725,4 6.5,4 Z M6.5,8.34656341 C5.48112294,8.34656341 4.65343659,7.51887706 4.65343659,6.5 C4.65343659,5.48112294 5.48112294,4.65343659 6.5,4.65343659 C7.51887706,4.65343659 8.34656341,5.48112294 8.34656341,6.5 C8.34656341,7.51887706 7.51887706,8.34656341 6.5,8.34656341 Z" id="Shape"></path>
            </g>
        </g>
    </g>
</svg>