<?xml version="1.0" encoding="UTF-8"?>
<svg width="18px" height="17px" viewBox="0 0 18 17" version="1.1" xmlns="http://www.w3.org/2000/svg" xmlns:xlink="http://www.w3.org/1999/xlink">
    <!-- Generator: Sketch 53.2 (72643) - https://sketchapp.com -->
    <title>upload</title>
    <desc>Created with Sketch.</desc>
    <g id="Page-1" stroke="none" stroke-width="1" fill="none" fill-rule="evenodd">
        <g id="Issue-details" transform="translate(-376.000000, -473.000000)" fill="#53575B">
            <g id="Group-7" transform="translate(338.000000, 423.000000)">
                <g id="Group-4" transform="translate(38.000000, 48.000000)">
                    <g id="upload" transform="translate(9.000000, 10.500000) scale(-1, 1) translate(-9.000000, -10.500000) translate(0.000000, 2.000000)">
                        <path d="M14.6391117,4.22887226 C14.4466379,3.11582156 13.8803208,2.10002771 13.0141888,1.32917706 C12.0518199,0.471875866 10.8007403,0 9.49784084,0 C8.4910549,0 7.5101789,0.280964256 6.66995682,0.810473815 C5.97038865,1.24993073 5.38926589,1.84427819 4.97840839,2.54308673 C4.80074028,2.51066778 4.61566934,2.49265725 4.4305984,2.49265725 C2.85749537,2.49265725 1.57680444,3.73898587 1.57680444,5.26988085 C1.57680444,5.46799667 1.59901295,5.65890828 1.63602714,5.84621779 C0.618136952,6.56663896 0,7.72651704 0,8.96203935 C0,9.95982267 0.381246144,10.9287891 1.07711289,11.6960377 C1.79148674,12.4812968 2.73534855,12.9459684 3.74213448,13 C3.75323874,13 3.76064158,13 3.77174584,13 L6.95496607,13 C7.23257249,13 7.45465762,12.7838736 7.45465762,12.5137157 C7.45465762,12.2435578 7.23257249,12.0274314 6.95496607,12.0274314 L3.78655151,12.0274314 C2.27267119,11.9373788 0.999383097,10.5361596 0.999383097,8.95843724 C0.999383097,7.93904129 1.56199877,6.98808534 2.46884639,6.47298421 C2.67982727,6.35411471 2.76866132,6.10556941 2.6872301,5.88223885 C2.61320173,5.68772513 2.57618754,5.4824051 2.57618754,5.26267664 C2.57618754,4.26849543 3.40900679,3.45802161 4.4305984,3.45802161 C4.64898211,3.45802161 4.8636644,3.49404267 5.06354102,3.56608479 C5.30783467,3.65253533 5.57803825,3.54447215 5.68908081,3.31753948 C6.38124614,1.88750346 7.87661937,0.965364367 9.50154226,0.965364367 C11.6853794,0.965364367 13.4879704,2.55749515 13.6952498,4.66832918 C13.7174584,4.88805763 13.8877236,5.06456082 14.1098088,5.10058188 C15.7569402,5.37434192 17.0006169,6.85480743 17.0006169,8.54419507 C17.0006169,10.3344417 15.5533621,11.8905514 13.7692782,12.0238293 L11.0413325,12.0238293 C10.7637261,12.0238293 10.541641,12.2399557 10.541641,12.5101136 C10.541641,12.7802715 10.7637261,12.9963979 11.0413325,12.9963979 L13.7877853,12.9963979 C13.7988896,12.9963979 13.8099938,12.9963979 13.8247995,12.9963979 C14.9537323,12.9171516 16.0086366,12.4128567 16.7933374,11.569964 C17.5743368,10.7342754 18,9.66084788 18,8.54419507 C17.9962986,6.52341369 16.5786552,4.72596287 14.6391117,4.22887226 Z" id="Path"></path>
                        <path d="M11.8596646,9.68353982 C12.0467785,9.47716814 12.0467785,9.14619469 11.8596646,8.93982301 L9.33539276,6.15575221 C9.24713151,6.05840708 9.12356575,6 9,6 C8.87643425,6 8.75286849,6.05451327 8.66460724,6.15575221 L6.14033539,8.93982301 C5.95322154,9.14619469 5.95322154,9.47716814 6.14033539,9.68353982 C6.2321271,9.78477876 6.35569285,9.83929204 6.47572816,9.83929204 C6.59576346,9.83929204 6.71932921,9.78867257 6.81112092,9.68353982 L8.52338923,7.79504425 L8.52338923,16.4743363 C8.52338923,16.7663717 8.73521624,17 9,17 C9.26478376,17 9.47661077,16.7663717 9.47661077,16.4743363 L9.47661077,7.79504425 L11.1888791,9.68353982 C11.3724625,9.8899115 11.6725508,9.8899115 11.8596646,9.68353982 Z" id="Path"></path>
                    </g>
                </g>
            </g>
        </g>
    </g>
</svg>